<?xml version="1.0" encoding="utf-8"?>
<!-- Generator: Adobe Illustrator 26.3.1, SVG Export Plug-In . SVG Version: 6.00 Build 0)  -->
<svg version="1.1" id="Layer_1" xmlns="http://www.w3.org/2000/svg" xmlns:xlink="http://www.w3.org/1999/xlink" x="0px" y="0px"
	 viewBox="0 0 215 215" style="enable-background:new 0 0 215 215;" xml:space="preserve">
<style type="text/css">
	.st0{fill:#CC0300;}
</style>
<polygon class="st0" points="191.5,8.74 108.51,8.74 150,86.96 "/>
<polygon class="st0" points="154.1,166.14 199.13,166.14 199.13,112.89 "/>
<path class="st0" d="M71.4,110.74c26.61-11.73,33.26-28.22,33.26-47.62c0-28.42-21.09-54.38-61.46-54.38H14.31v37.04H43.2
	c11.73,0,17.37,9.27,17.37,19.19c0,9.47-5.19,17.84-16.92,17.84H14.31v31.25h11.97l36.76,52.08h49.64v-2.18L71.4,110.74z"/>
<polygon class="st0" points="100.75,113.14 100.75,166.14 144.75,166.14 "/>
<g>
	<path class="st0" d="M22.06,196.49h-0.49h-0.49v9.02h-6.22V179.3h8.57c5.24,0,7.9,3.67,7.9,8.84c0,3-1.05,5.62-3.22,6.89
		l3.86,10.48h-6.96L22.06,196.49z M23.07,191.36c1.24,0,2.02-1.05,2.02-3.07c0-1.91-0.67-3.11-2.02-3.11h-1.98v6.18H23.07z"/>
	<path class="st0" d="M38.57,202.37l-0.49,3.15h-5.62l4.16-20.97h8.35l4.19,20.97h-5.88l-0.49-3.15H38.57z M41.49,194.02
		c-0.52-3.37-0.75-5.02-0.79-5.13h-0.15c-0.04,0.11-0.26,1.8-0.75,5.17l-0.52,3.33h2.73L41.49,194.02z"/>
	<path class="st0" d="M60.82,205.51l-4.79-10.18h-0.15c0,0.04,0.04,2.32,0.04,4.27v5.92h-5.47v-20.97h5.95l4.76,9.66h0.15
		c0-0.04,0-1.91,0-3.89v-5.77h5.47v20.97H60.82z"/>
	<path class="st0" d="M75.98,184.54c5.73,0,8.54,3.86,8.54,10.56c0,6.52-2.58,10.41-8.42,10.41h-7.15v-20.97H75.98z M75.8,199.93
		c2.06,0,2.81-0.86,2.81-4.75c0-4.31-0.67-5.05-2.66-5.05h-1.16v9.81H75.8z"/>
	<path class="st0" d="M94.07,184.13c5.17,0,8.28,2.73,8.28,10.86c0,8.01-3.11,11.01-8.28,11.01c-5.2,0-8.31-3-8.31-11.01
		C85.76,186.87,88.87,184.13,94.07,184.13z M94.07,200.53c1.61,0,2.28-1.16,2.28-5.47c0-4.31-0.67-5.47-2.28-5.47
		c-1.65,0-2.32,1.16-2.32,5.47C91.75,199.52,92.42,200.53,94.07,200.53z"/>
	<path class="st0" d="M119.46,199.07c0-5.2,0.07-9.66,0.07-9.7h-0.15c-0.04,0.04-0.75,2.96-1.39,5.43l-1.31,5.02h-4.01l-1.31-4.98
		l-1.39-5.47h-0.15c0,0.04,0.07,4.49,0.07,9.7v6.44h-5.95V179.3h7.79l3.33,10.18h0.15l3.03-10.18h7.41v26.21h-6.22V199.07z"/>
	<path class="st0" d="M133.06,202.37l-0.49,3.15h-5.62l4.16-20.97h8.35l4.19,20.97h-5.88l-0.49-3.15H133.06z M135.98,194.02
		c-0.52-3.37-0.75-5.02-0.79-5.13h-0.15c-0.04,0.11-0.26,1.8-0.75,5.17l-0.52,3.33h2.73L135.98,194.02z"/>
	<path class="st0" d="M151.71,198.73h-0.86h-0.19v6.78h-5.73v-20.97h7.71c4.57,0,6.85,2.96,6.85,7.19c0,2.73-1.01,4.72-2.58,5.58
		l3.15,8.2h-6.14L151.71,198.73z M152.12,194.17c1.05,0,1.5-0.86,1.5-2.02c0-1.38-0.45-2.1-1.5-2.1h-1.42v4.12H152.12z"/>
	<path class="st0" d="M164.14,205.51l-4.31-20.97h6.37l1.31,8.84l1.01,6.74h0.15l0.97-6.74l1.27-8.8h5.8l-4.19,20.93H164.14z"/>
	<path class="st0" d="M178,184.54h12.88v5.58h-7.04v2.36h4.79v4.94h-4.79v2.51h7.23v5.58H178V184.54z"/>
	<path class="st0" d="M192.98,184.54h5.84v15.39h6.37v5.58h-12.21V184.54z"/>
</g>
</svg>
